PathFileType	4	(X/Y/Z)	TVC_39_BWA_03_walk_RCNL2025.trc
DataRate	CameraRate	NumFrames	NumMarkers	Units	OrigDataRate	OrigDataStartFrame	OrigNumFrames
100	100	8	27	mm	100	1	1176
Frame#	Time	R_Shoulder			L_Shoulder			C7			J_Notch			R_Elbow			L_Elbow			R_Wrist			L_Wrist			R_Asis			L_Asis			R_Psis			L_Psis			Sacral			Thoracic			Sternum			R_Thigh_Lateral			R_Knee_Lateral			R_Shank_Lateral			R_Ankle_Lateral			R_Heel			R_Toe			L_Thigh_Lateral			L_Knee_Lateral			L_Shank_Lateral			L_Ankle_Lateral			L_Heel			L_Toe		
		X1	Y1	Z1	X2	Y2	Z2	X3	Y3	Z3	X4	Y4	Z4	X5	Y5	Z5	X6	Y6	Z6	X7	Y7	Z7	X8	Y8	Z8	X9	Y9	Z9	X10	Y10	Z10	X11	Y11	Z11	X12	Y12	Z12	X13	Y13	Z13	X14	Y14	Z14	X15	Y15	Z15	X16	Y16	Z16	X17	Y17	Z17	X18	Y18	Z18	X19	Y19	Z19	X20	Y20	Z20	X21	Y21	Z21	X22	Y22	Z22	X23	Y23	Z23	X24	Y24	Z24	X25	Y25	Z25	X26	Y26	Z26	X27	Y27	Z27
1	0.00000000	-885.988770	1464.752686	110.663086	-863.666809	1475.853027	-256.817627	-911.445740	1535.796875	-79.068497	-765.677124	1406.886230	-73.934959	-864.592834	1149.381714	234.217316	-938.521484	1168.746704	-376.588226	-733.587555	930.750000	196.693527	-860.592712	918.848053	-356.075058	-835.304565	927.842957	69.074516	-808.433105	925.959717	-224.583817	-1026.105835	962.834473	-38.091911	-1016.349426	954.475098	-146.276794	-1021.227631	958.654785	-92.184353	-1010.598145	1210.252930	-91.899147	-725.787659	1245.468994	-61.965954	-901.702209	732.409302	146.366913	-950.954712	471.271301	90.576416	-1055.844238	313.020386	157.602127	-1118.345093	91.290207	73.438568	-1160.480225	78.981712	19.266357	-981.293396	47.441727	92.914825	-824.751587	678.343384	-302.039917	-744.388428	472.750336	-218.070953	-777.867126	338.096252	-281.282104	-828.828247	76.705437	-202.811478	-878.143616	60.600342	-149.287659	-688.466248	44.156960	-199.630981
2	0.01000000	-883.172913	1465.280640	108.474243	-861.292908	1475.937378	-259.084076	-908.933228	1536.154663	-81.351738	-763.213379	1407.180664	-76.215134	-860.828064	1149.938965	231.967255	-936.199036	1168.766602	-378.562286	-729.896210	931.243652	194.480873	-858.868958	918.671570	-358.255890	-833.029419	928.324341	67.474823	-806.191589	926.139099	-226.273911	-1023.809204	963.189087	-39.694839	-1014.095520	954.800171	-147.855560	-1018.952362	958.994629	-93.775200	-1008.273438	1210.666748	-93.746696	-723.403381	1245.757446	-64.111633	-899.160522	732.995239	145.042450	-948.119873	471.708740	89.966797	-1054.038330	314.085419	156.937531	-1117.728760	92.617897	73.050812	-1159.811035	80.577583	18.756966	-981.090881	47.495113	92.843697	-823.063599	678.261719	-303.058685	-743.482056	472.483612	-218.646194	-777.045654	337.747650	-281.678894	-828.747559	76.599136	-202.858475	-877.905823	60.688198	-149.279846	-688.446655	44.145416	-199.537643
3	0.02000000	-880.411377	1465.880249	106.287392	-858.953796	1476.089111	-261.349213	-906.464783	1536.568970	-83.634758	-760.794800	1407.532837	-78.488792	-857.130737	1150.578247	229.726379	-933.906982	1168.865112	-380.509552	-726.274750	931.819031	192.269066	-857.213379	918.550262	-360.421921	-830.771484	928.888000	65.890518	-804.001831	926.388733	-227.948776	-1021.539551	963.598572	-41.256840	-1011.883911	955.184082	-149.393250	-1016.711731	959.391327	-95.325045	-1005.991211	1211.130615	-95.586075	-721.064697	1246.106201	-66.248192	-896.548401	733.661133	143.739639	-945.105957	472.201263	89.424858	-1052.055176	315.231689	156.375244	-1117.044922	94.064018	72.771332	-1159.117310	82.332191	18.385242	-980.861633	47.555138	92.797684	-821.498169	678.282410	-304.106110	-742.812805	472.260376	-219.269012	-776.448853	337.426544	-282.133728	-828.690674	76.471695	-202.935165	-877.653931	60.794430	-149.298798	-688.445801	44.124355	-199.463074
4	0.03000000	-877.708984	1466.551270	104.103836	-856.652039	1476.308594	-263.611145	-904.043213	1537.038940	-85.915627	-758.422668	1407.943848	-80.754044	-853.512146	1151.301025	227.501373	-931.644714	1169.045654	-382.432007	-722.726196	932.483093	190.057480	-855.619141	918.489594	-362.568466	-828.528503	929.532471	64.321152	-801.858643	926.709412	-229.606934	-1019.294189	964.061401	-42.778557	-1009.710876	955.626465	-150.890961	-1014.502533	959.843933	-96.834759	-1003.749512	1211.642334	-97.417419	-718.770508	1246.516846	-68.373917	-893.864746	734.406799	142.461273	-941.904053	472.748138	88.952988	-1049.880493	316.459015	155.921341	-1116.286743	95.634041	72.608650	-1158.393555	84.253372	18.161545	-980.604919	47.621429	92.779739	-820.073486	678.398315	-305.185791	-742.381165	472.081818	-219.945312	-776.088257	337.134491	-282.653687	-828.660156	76.326706	-203.040298	-877.399048	60.917286	-149.345413	-688.464783	44.094860	-199.414749
5	0.04000000	-875.070251	1467.291748	101.925140	-854.390137	1476.594971	-265.867615	-901.671021	1537.562988	-88.192116	-756.097839	1408.413208	-83.008835	-849.982788	1152.106323	225.299103	-929.412537	1169.309814	-384.331970	-719.253143	933.240753	187.846046	-854.079224	918.493591	-364.691101	-826.298584	930.255005	62.766525	-799.756775	927.099915	-231.246964	-1017.070740	964.574768	-44.260876	-1007.572693	956.125244	-152.350021	-1012.321716	960.350006	-98.305449	-1001.546387	1212.198975	-99.240837	-716.519897	1246.989624	-70.487053	-891.106323	735.230652	141.210205	-938.504089	473.347168	88.552910	-1047.501221	317.766022	155.579346	-1115.446411	97.332664	72.568062	-1157.631104	86.347473	18.091484	-980.320557	47.693344	92.791695	-818.805664	678.600403	-306.298035	-742.183289	471.948181	-220.678589	-775.970032	336.872406	-283.242676	-828.659424	76.168922	-203.171921	-877.158020	61.053001	-149.420654	-688.504395	44.058777	-199.398270
6	0.05000000	-872.499146	1468.098145	99.753128	-852.170471	1476.945557	-268.116150	-899.350342	1538.137939	-90.461700	-753.821045	1408.939819	-85.250992	-846.552490	1152.991699	223.126373	-927.211243	1169.656860	-386.211884	-715.857574	934.094910	185.635239	-852.586731	918.564636	-366.785553	-824.080139	931.051392	61.226711	-797.691040	927.557373	-232.867477	-1014.867188	965.134827	-45.704914	-1005.465942	956.676941	-153.771957	-1010.166565	960.905884	-99.738436	-999.379761	1212.796509	-101.056427	-714.311829	1247.523071	-72.585777	-888.267822	736.129517	139.989166	-934.896118	473.994781	88.225639	-1044.905884	319.150177	155.350266	-1114.516479	99.163788	72.651550	-1156.819458	88.619308	18.175825	-980.009155	47.769909	92.833923	-817.706238	678.878906	-307.439911	-742.210632	471.858612	-221.469604	-776.093567	336.640381	-283.900909	-828.691956	76.003311	-203.327698	-876.952332	61.196106	-149.525421	-688.564636	44.018326	-199.416626
7	0.06000000	-869.999207	1468.965332	97.589828	-849.995422	1477.356201	-270.354156	-897.083069	1538.759888	-92.721619	-751.592773	1409.520630	-87.478210	-843.229736	1153.952881	220.989731	-925.042358	1170.084351	-388.074341	-712.540985	935.046356	183.426125	-851.134979	918.703369	-368.847855	-821.872192	931.916321	59.702038	-795.656311	928.077332	-234.467285	-1012.681885	965.736328	-47.111958	-1003.387329	957.276550	-155.158447	-1008.034607	961.506439	-101.135202	-997.247742	1213.430054	-102.864243	-712.145020	1248.114624	-74.668175	-885.342224	737.098755	138.800552	-931.070251	474.686218	87.971474	-1042.085083	320.607941	155.232605	-1113.488647	101.130470	72.857796	-1155.945679	91.072174	18.410589	-979.671692	47.849789	92.905052	-816.779480	679.224243	-308.605560	-742.449890	471.811188	-222.316193	-776.450256	336.437469	-284.624390	-828.760803	75.834442	-203.505142	-876.804626	61.339928	-149.660233	-688.644531	43.975681	-199.469940
8	0.07000000	-867.573425	1469.887085	95.437431	-847.867188	1477.821411	-272.578827	-894.870789	1539.424072	-94.968948	-749.413269	1410.151978	-89.688072	-840.022034	1154.984009	218.895233	-922.907898	1170.587769	-389.922058	-709.304413	936.093719	181.220284	-849.717743	918.908722	-370.874268	-819.673950	932.843506	58.193073	-793.647705	928.653992	-236.045258	-1010.513489	966.373291	-48.483418	-1001.333984	957.917603	-156.511200	-1005.923737	962.145447	-102.497309	-995.148254	1214.094360	-104.664238	-710.018433	1248.760620	-76.732246	-882.321167	738.132202	137.646194	-927.017517	475.415588	87.789955	-1039.031860	322.134766	155.222626	-1112.355347	103.234818	73.182228	-1154.995361	93.707901	18.787338	-979.309753	47.931274	93.001678	-816.020325	679.627441	-309.786987	-742.883118	471.802856	-223.213379	-777.023315	336.261688	-285.404968	-828.867493	75.666252	-203.701523	-876.734863	61.477325	-149.824265	-688.742310	43.932766	-199.555557
